<?xml version="1.0" encoding="UTF-8" standalone="no"?>
<!DOCTYPE svg PUBLIC "-//W3C//DTD SVG 1.1//EN" "http://www.w3.org/Graphics/SVG/1.1/DTD/svg11.dtd">
<svg width="100%" height="100%" viewBox="0 0 2235 297" version="1.1" xmlns="http://www.w3.org/2000/svg" xmlns:xlink="http://www.w3.org/1999/xlink" xml:space="preserve" xmlns:serif="http://www.serif.com/" style="fill-rule:evenodd;clip-rule:evenodd;stroke-linejoin:round;stroke-miterlimit:2;">
    <g id="Artboard1" transform="matrix(1,0,0,1,-224.525,-245.069)">
        <rect x="224.525" y="245.069" width="2234.7" height="296.895" style="fill:none;"/>
        <g transform="matrix(0.615225,0,0,0.733101,60.3156,-107.532)">
            <g>
                <g transform="matrix(28.5099,0,0,28.5099,216.291,-10250.9)">
                    <path d="M8.771,386.082L3.894,386.082L10.793,378.914L15.669,378.914L8.771,386.082Z" style="fill-rule:nonzero;"/>
                </g>
                <g transform="matrix(28.5099,0,0,28.5099,216.291,-10250.9)">
                    <path d="M17.319,386.082L12.441,386.082L19.34,378.914L24.217,378.914L17.319,386.082Z" style="fill-rule:nonzero;"/>
                </g>
                <g transform="matrix(28.5099,0,0,28.5099,216.291,-10250.9)">
                    <path d="M3.893,378.914L7.124,378.914L3.895,382.267L3.893,378.914Z" style="fill-rule:nonzero;"/>
                </g>
                <g transform="matrix(28.5099,0,0,28.5099,216.291,-10250.9)">
                    <path d="M8.771,386.082L3.894,386.082L10.793,378.914L15.669,378.914L8.771,386.082Z" style="fill-rule:nonzero;"/>
                </g>
                <g transform="matrix(28.5099,0,0,28.5099,216.291,-10250.9)">
                    <path d="M25.866,386.082L20.99,386.082L27.887,378.914L32.764,378.914L25.866,386.082Z" style="fill-rule:nonzero;"/>
                </g>
                <g transform="matrix(28.5099,0,0,28.5099,-12470.4,-10247.3)">
                    <path d="M494.312,386.082L491.082,386.082L494.311,382.727L494.312,386.082Z" style="fill-rule:nonzero;"/>
                </g>
                <g transform="matrix(28.5099,0,0,28.5099,-12470.4,-10247.3)">
                    <path d="M478.867,386.082L473.989,386.082L480.887,378.914L485.765,378.914L478.867,386.082Z" style="fill-rule:nonzero;"/>
                </g>
                <g transform="matrix(28.5099,0,0,28.5099,-12470.4,-10247.3)">
                    <path d="M487.414,386.082L482.537,386.082L489.435,378.914L494.312,378.914L487.414,386.082Z" style="fill-rule:nonzero;"/>
                </g>
            </g>
        </g>
        <g transform="matrix(0.733101,0,0,0.733101,70.2237,78.8153)">
            <g transform="matrix(292.652,0,0,292.652,1377.21,503.299)">
                <path d="M0.567,-0.712C0.501,-0.712 0.44,-0.707 0.386,-0.699C0.331,-0.69 0.285,-0.679 0.249,-0.666C0.212,-0.652 0.18,-0.635 0.153,-0.615C0.126,-0.595 0.104,-0.575 0.089,-0.555C0.074,-0.534 0.061,-0.512 0.052,-0.488C0.043,-0.464 0.037,-0.443 0.034,-0.424C0.031,-0.406 0.03,-0.386 0.03,-0.366L0.03,-0.337C0.03,-0.317 0.031,-0.298 0.034,-0.279C0.037,-0.26 0.043,-0.239 0.052,-0.215C0.061,-0.19 0.074,-0.168 0.089,-0.148C0.104,-0.127 0.126,-0.107 0.154,-0.087C0.181,-0.066 0.213,-0.049 0.249,-0.035C0.286,-0.021 0.331,-0.009 0.386,-0.001C0.44,0.008 0.501,0.013 0.567,0.013L0.6,0.013C0.666,0.013 0.726,0.008 0.781,-0.001C0.835,-0.009 0.88,-0.021 0.917,-0.035C0.953,-0.049 0.985,-0.066 1.012,-0.087C1.04,-0.107 1.061,-0.127 1.076,-0.148C1.092,-0.168 1.104,-0.19 1.113,-0.215C1.123,-0.239 1.129,-0.26 1.132,-0.279C1.135,-0.298 1.136,-0.317 1.136,-0.337L1.136,-0.366C1.136,-0.386 1.135,-0.406 1.132,-0.425C1.129,-0.444 1.123,-0.465 1.113,-0.489C1.104,-0.513 1.091,-0.534 1.076,-0.555C1.061,-0.575 1.039,-0.595 1.012,-0.615C0.985,-0.635 0.953,-0.652 0.916,-0.666C0.879,-0.679 0.834,-0.69 0.78,-0.699C0.726,-0.707 0.666,-0.712 0.6,-0.712L0.567,-0.712ZM0.886,-0.346C0.886,-0.323 0.882,-0.302 0.873,-0.282C0.864,-0.262 0.85,-0.242 0.828,-0.222C0.807,-0.202 0.775,-0.187 0.732,-0.175C0.695,-0.165 0.651,-0.159 0.599,-0.158C0.592,-0.158 0.579,-0.158 0.575,-0.158C0.519,-0.159 0.472,-0.165 0.432,-0.176C0.389,-0.187 0.357,-0.203 0.337,-0.223C0.316,-0.244 0.302,-0.264 0.293,-0.284C0.284,-0.304 0.28,-0.325 0.28,-0.348L0.28,-0.359C0.28,-0.478 0.377,-0.539 0.571,-0.542C0.577,-0.542 0.595,-0.542 0.603,-0.542C0.642,-0.541 0.677,-0.537 0.708,-0.531C0.746,-0.523 0.776,-0.513 0.798,-0.501C0.819,-0.489 0.837,-0.475 0.851,-0.458C0.865,-0.441 0.874,-0.424 0.879,-0.409C0.883,-0.393 0.886,-0.376 0.886,-0.359L0.886,-0.346Z" style="fill-rule:nonzero;"/>
            </g>
            <g transform="matrix(292.652,0,0,292.652,1718.44,503.299)">
                <path d="M0.645,-0L0.929,-0L0.51,-0.376L0.91,-0.692L0.634,-0.692L0.36,-0.47L0.278,-0.47L0.278,-0.692L0.06,-0.692L0.06,-0L0.278,-0L0.278,-0.262L0.35,-0.262L0.645,-0Z" style="fill-rule:nonzero;"/>
            </g>
            <g transform="matrix(292.652,0,0,292.652,2000.9,503.299)">
                <path d="M0.96,0L0.96,-0.251L0.729,-0.251L0.729,-0.163L0.255,-0.163C0.255,-0.198 0.32,-0.226 0.452,-0.248L0.657,-0.28C0.718,-0.289 0.767,-0.3 0.806,-0.313C0.845,-0.325 0.874,-0.341 0.894,-0.358C0.914,-0.376 0.928,-0.395 0.935,-0.414C0.943,-0.434 0.946,-0.458 0.946,-0.486L0.946,-0.488C0.946,-0.511 0.943,-0.533 0.936,-0.552C0.93,-0.571 0.917,-0.59 0.898,-0.609C0.879,-0.628 0.855,-0.644 0.824,-0.656C0.794,-0.669 0.753,-0.679 0.702,-0.687C0.651,-0.695 0.591,-0.699 0.522,-0.699L0.482,-0.699C0.408,-0.699 0.344,-0.693 0.289,-0.68C0.235,-0.668 0.193,-0.653 0.164,-0.635C0.136,-0.618 0.113,-0.596 0.096,-0.572C0.079,-0.547 0.068,-0.526 0.064,-0.508C0.06,-0.49 0.058,-0.471 0.058,-0.452L0.058,-0.444L0.303,-0.444C0.304,-0.455 0.306,-0.465 0.31,-0.474C0.315,-0.483 0.323,-0.493 0.336,-0.505C0.349,-0.516 0.37,-0.525 0.4,-0.532C0.429,-0.538 0.466,-0.541 0.51,-0.541C0.562,-0.541 0.602,-0.539 0.632,-0.533C0.661,-0.528 0.679,-0.522 0.687,-0.515C0.695,-0.509 0.699,-0.5 0.699,-0.49C0.699,-0.477 0.692,-0.466 0.678,-0.457C0.664,-0.449 0.634,-0.44 0.588,-0.432L0.413,-0.399C0.364,-0.39 0.321,-0.379 0.283,-0.365C0.244,-0.352 0.213,-0.338 0.188,-0.324C0.162,-0.31 0.141,-0.294 0.122,-0.276C0.104,-0.258 0.089,-0.242 0.08,-0.226C0.07,-0.211 0.062,-0.194 0.057,-0.174C0.052,-0.155 0.048,-0.138 0.047,-0.124C0.046,-0.11 0.045,-0.095 0.045,-0.078L0.045,0L0.96,0Z" style="fill-rule:nonzero;"/>
            </g>
            <g transform="matrix(292.652,0,0,292.652,2288.48,503.299)">
                <path d="M0.059,-0.001L0.297,-0.001L0.297,-0.276L0.809,-0.276L0.809,-0.001L1.047,-0.001L1.047,-0.699L0.809,-0.699L0.809,-0.444L0.297,-0.444L0.297,-0.699L0.059,-0.699L0.059,-0.001Z" style="fill-rule:nonzero;"/>
            </g>
            <g transform="matrix(292.652,0,0,292.652,2608.44,503.299)">
                <path d="M0.48,0.013L0.551,0.013C0.625,0.013 0.689,0.008 0.744,-0.001C0.799,-0.01 0.842,-0.022 0.874,-0.036C0.906,-0.051 0.931,-0.069 0.951,-0.09C0.97,-0.111 0.982,-0.132 0.989,-0.152C0.995,-0.173 0.998,-0.196 0.998,-0.222L0.998,-0.235C0.998,-0.305 0.966,-0.357 0.903,-0.389C0.84,-0.422 0.737,-0.44 0.595,-0.443L0.467,-0.445C0.417,-0.445 0.379,-0.449 0.352,-0.455C0.325,-0.461 0.308,-0.468 0.301,-0.476C0.294,-0.483 0.29,-0.493 0.29,-0.505C0.29,-0.517 0.294,-0.527 0.3,-0.534C0.307,-0.542 0.325,-0.548 0.356,-0.555C0.387,-0.562 0.423,-0.565 0.48,-0.565L0.516,-0.565C0.553,-0.565 0.575,-0.563 0.604,-0.558C0.632,-0.554 0.653,-0.549 0.668,-0.543C0.682,-0.538 0.694,-0.53 0.703,-0.522C0.711,-0.513 0.717,-0.506 0.719,-0.5C0.722,-0.495 0.724,-0.489 0.725,-0.481L0.973,-0.481L0.973,-0.491C0.973,-0.513 0.969,-0.534 0.962,-0.554C0.954,-0.574 0.941,-0.594 0.92,-0.614C0.9,-0.634 0.874,-0.651 0.842,-0.665C0.811,-0.678 0.768,-0.69 0.715,-0.698C0.662,-0.707 0.6,-0.712 0.53,-0.712L0.46,-0.712C0.393,-0.712 0.334,-0.707 0.283,-0.699C0.233,-0.69 0.192,-0.68 0.163,-0.666C0.133,-0.653 0.109,-0.637 0.09,-0.618C0.072,-0.599 0.06,-0.58 0.053,-0.561C0.047,-0.542 0.044,-0.521 0.044,-0.498L0.044,-0.49C0.044,-0.359 0.168,-0.291 0.416,-0.285L0.548,-0.282C0.604,-0.281 0.648,-0.277 0.678,-0.27C0.708,-0.263 0.727,-0.256 0.735,-0.247C0.744,-0.238 0.748,-0.226 0.748,-0.211C0.748,-0.201 0.745,-0.191 0.74,-0.184C0.736,-0.176 0.726,-0.168 0.712,-0.16C0.697,-0.153 0.674,-0.147 0.643,-0.143C0.612,-0.139 0.591,-0.137 0.543,-0.137L0.488,-0.137C0.342,-0.137 0.289,-0.174 0.283,-0.248L0.034,-0.248L0.034,-0.238C0.034,-0.216 0.037,-0.195 0.042,-0.176C0.047,-0.156 0.058,-0.134 0.077,-0.11C0.095,-0.086 0.119,-0.066 0.15,-0.049C0.181,-0.032 0.224,-0.017 0.281,-0.005C0.338,0.007 0.404,0.013 0.48,0.013L0.48,0.013Z" style="fill-rule:nonzero;"/>
            </g>
            <g transform="matrix(292.652,0,0,292.652,2914.26,504.766)">
                <path d="M0.48,0.013L0.551,0.013C0.625,0.013 0.689,0.008 0.744,-0.001C0.799,-0.01 0.842,-0.022 0.874,-0.036C0.906,-0.051 0.931,-0.069 0.951,-0.09C0.97,-0.111 0.982,-0.132 0.989,-0.152C0.995,-0.173 0.998,-0.196 0.998,-0.222L0.998,-0.235C0.998,-0.305 0.966,-0.357 0.903,-0.389C0.84,-0.422 0.737,-0.44 0.595,-0.443L0.467,-0.445C0.417,-0.445 0.379,-0.449 0.352,-0.455C0.325,-0.461 0.308,-0.468 0.301,-0.476C0.294,-0.483 0.29,-0.493 0.29,-0.505C0.29,-0.517 0.294,-0.527 0.3,-0.534C0.307,-0.542 0.325,-0.548 0.356,-0.555C0.387,-0.562 0.423,-0.565 0.48,-0.565L0.516,-0.565C0.553,-0.565 0.575,-0.563 0.604,-0.558C0.632,-0.554 0.653,-0.549 0.668,-0.543C0.682,-0.538 0.694,-0.53 0.703,-0.522C0.711,-0.513 0.717,-0.506 0.719,-0.5C0.722,-0.495 0.724,-0.489 0.725,-0.481L0.973,-0.481L0.973,-0.491C0.973,-0.513 0.969,-0.534 0.962,-0.554C0.954,-0.574 0.941,-0.594 0.92,-0.614C0.9,-0.634 0.874,-0.651 0.842,-0.665C0.811,-0.678 0.768,-0.69 0.715,-0.698C0.662,-0.707 0.6,-0.712 0.53,-0.712L0.46,-0.712C0.393,-0.712 0.334,-0.707 0.283,-0.699C0.233,-0.69 0.192,-0.68 0.163,-0.666C0.133,-0.653 0.109,-0.637 0.09,-0.618C0.072,-0.599 0.06,-0.58 0.053,-0.561C0.047,-0.542 0.044,-0.521 0.044,-0.498L0.044,-0.49C0.044,-0.359 0.168,-0.291 0.416,-0.285L0.548,-0.282C0.604,-0.281 0.648,-0.277 0.678,-0.27C0.708,-0.263 0.727,-0.256 0.735,-0.247C0.744,-0.238 0.748,-0.226 0.748,-0.211C0.748,-0.201 0.745,-0.191 0.74,-0.184C0.736,-0.176 0.726,-0.168 0.712,-0.16C0.697,-0.153 0.674,-0.147 0.643,-0.143C0.612,-0.139 0.591,-0.137 0.543,-0.137L0.488,-0.137C0.342,-0.137 0.289,-0.174 0.283,-0.248L0.034,-0.248L0.034,-0.238C0.034,-0.216 0.037,-0.195 0.042,-0.176C0.047,-0.156 0.058,-0.134 0.077,-0.11C0.095,-0.086 0.119,-0.066 0.15,-0.049C0.181,-0.032 0.224,-0.017 0.281,-0.005C0.338,0.007 0.404,0.013 0.48,0.013L0.48,0.013Z" style="fill-rule:nonzero;"/>
            </g>
        </g>
        <g transform="matrix(0.733101,0,0,0.733101,24.0026,-430.486)">
            <g>
                <g transform="matrix(192.485,0,0,192.485,309.716,1302.35)">
                    <path d="M0.096,-0.178C0.09,-0.178 0.085,-0.18 0.081,-0.184C0.077,-0.188 0.075,-0.194 0.075,-0.201L0.075,-0.253C0.075,-0.259 0.077,-0.264 0.081,-0.268C0.085,-0.271 0.09,-0.273 0.096,-0.273L0.501,-0.273C0.508,-0.273 0.514,-0.271 0.519,-0.268C0.523,-0.264 0.525,-0.259 0.525,-0.253L0.525,-0.201C0.525,-0.195 0.522,-0.19 0.518,-0.185C0.513,-0.181 0.507,-0.178 0.501,-0.178L0.096,-0.178Z" style="fill-rule:nonzero;"/>
                </g>
                <g transform="matrix(192.485,0,0,192.485,425.226,1302.35)">
                    <path d="M0.096,-0.178C0.09,-0.178 0.085,-0.18 0.081,-0.184C0.077,-0.188 0.075,-0.194 0.075,-0.201L0.075,-0.253C0.075,-0.259 0.077,-0.264 0.081,-0.268C0.085,-0.271 0.09,-0.273 0.096,-0.273L0.501,-0.273C0.508,-0.273 0.514,-0.271 0.519,-0.268C0.523,-0.264 0.525,-0.259 0.525,-0.253L0.525,-0.201C0.525,-0.195 0.522,-0.19 0.518,-0.185C0.513,-0.181 0.507,-0.178 0.501,-0.178L0.096,-0.178Z" style="fill-rule:nonzero;"/>
                </g>
                <g transform="matrix(192.485,0,0,192.485,540.736,1302.35)">
                    <path d="M0.096,-0.178C0.09,-0.178 0.085,-0.18 0.081,-0.184C0.077,-0.188 0.075,-0.194 0.075,-0.201L0.075,-0.253C0.075,-0.259 0.077,-0.264 0.081,-0.268C0.085,-0.271 0.09,-0.273 0.096,-0.273L0.501,-0.273C0.508,-0.273 0.514,-0.271 0.519,-0.268C0.523,-0.264 0.525,-0.259 0.525,-0.253L0.525,-0.201C0.525,-0.195 0.522,-0.19 0.518,-0.185C0.513,-0.181 0.507,-0.178 0.501,-0.178L0.096,-0.178Z" style="fill-rule:nonzero;"/>
                </g>
                <g transform="matrix(192.485,0,0,192.485,771.756,1302.35)">
                    <path d="M0.096,-0.178C0.09,-0.178 0.085,-0.18 0.081,-0.184C0.077,-0.188 0.075,-0.194 0.075,-0.201L0.075,-0.253C0.075,-0.259 0.077,-0.264 0.081,-0.268C0.085,-0.271 0.09,-0.273 0.096,-0.273L0.501,-0.273C0.508,-0.273 0.514,-0.271 0.519,-0.268C0.523,-0.264 0.525,-0.259 0.525,-0.253L0.525,-0.201C0.525,-0.195 0.522,-0.19 0.518,-0.185C0.513,-0.181 0.507,-0.178 0.501,-0.178L0.096,-0.178Z" style="fill-rule:nonzero;"/>
                </g>
                <g transform="matrix(192.485,0,0,192.485,887.266,1274.34)">
                    <path d="M0.204,-0.08C0.204,-0.105 0.213,-0.126 0.231,-0.143C0.248,-0.159 0.271,-0.167 0.3,-0.167C0.329,-0.167 0.352,-0.159 0.37,-0.143C0.387,-0.127 0.396,-0.106 0.396,-0.08C0.396,-0.054 0.387,-0.033 0.369,-0.017C0.352,-0.001 0.328,0.007 0.3,0.007C0.271,0.007 0.248,-0.001 0.23,-0.017C0.213,-0.033 0.204,-0.054 0.204,-0.08Z" style="fill-rule:nonzero;"/>
                </g>
                <g transform="matrix(192.485,0,0,192.485,1002.78,1302.35)">
                    <path d="M0.096,-0.178C0.09,-0.178 0.085,-0.18 0.081,-0.184C0.077,-0.188 0.075,-0.194 0.075,-0.201L0.075,-0.253C0.075,-0.259 0.077,-0.264 0.081,-0.268C0.085,-0.271 0.09,-0.273 0.096,-0.273L0.501,-0.273C0.508,-0.273 0.514,-0.271 0.519,-0.268C0.523,-0.264 0.525,-0.259 0.525,-0.253L0.525,-0.201C0.525,-0.195 0.522,-0.19 0.518,-0.185C0.513,-0.181 0.507,-0.178 0.501,-0.178L0.096,-0.178Z" style="fill-rule:nonzero;"/>
                </g>
                <g transform="matrix(192.485,0,0,192.485,1233.8,1274.34)">
                    <path d="M0.204,-0.08C0.204,-0.105 0.213,-0.126 0.231,-0.143C0.248,-0.159 0.271,-0.167 0.3,-0.167C0.329,-0.167 0.352,-0.159 0.37,-0.143C0.387,-0.127 0.396,-0.106 0.396,-0.08C0.396,-0.054 0.387,-0.033 0.369,-0.017C0.352,-0.001 0.328,0.007 0.3,0.007C0.271,0.007 0.248,-0.001 0.23,-0.017C0.213,-0.033 0.204,-0.054 0.204,-0.08Z" style="fill-rule:nonzero;"/>
                </g>
                <g transform="matrix(192.485,0,0,192.485,1349.31,1274.34)">
                    <path d="M0.204,-0.08C0.204,-0.105 0.213,-0.126 0.231,-0.143C0.248,-0.159 0.271,-0.167 0.3,-0.167C0.329,-0.167 0.352,-0.159 0.37,-0.143C0.387,-0.127 0.396,-0.106 0.396,-0.08C0.396,-0.054 0.387,-0.033 0.369,-0.017C0.352,-0.001 0.328,0.007 0.3,0.007C0.271,0.007 0.248,-0.001 0.23,-0.017C0.213,-0.033 0.204,-0.054 0.204,-0.08Z" style="fill-rule:nonzero;"/>
                </g>
                <g transform="matrix(192.485,0,0,192.485,1464.82,1302.35)">
                    <path d="M0.096,-0.178C0.09,-0.178 0.085,-0.18 0.081,-0.184C0.077,-0.188 0.075,-0.194 0.075,-0.201L0.075,-0.253C0.075,-0.259 0.077,-0.264 0.081,-0.268C0.085,-0.271 0.09,-0.273 0.096,-0.273L0.501,-0.273C0.508,-0.273 0.514,-0.271 0.519,-0.268C0.523,-0.264 0.525,-0.259 0.525,-0.253L0.525,-0.201C0.525,-0.195 0.522,-0.19 0.518,-0.185C0.513,-0.181 0.507,-0.178 0.501,-0.178L0.096,-0.178Z" style="fill-rule:nonzero;"/>
                </g>
                <g transform="matrix(192.485,0,0,192.485,1580.33,1302.35)">
                    <path d="M0.096,-0.178C0.09,-0.178 0.085,-0.18 0.081,-0.184C0.077,-0.188 0.075,-0.194 0.075,-0.201L0.075,-0.253C0.075,-0.259 0.077,-0.264 0.081,-0.268C0.085,-0.271 0.09,-0.273 0.096,-0.273L0.501,-0.273C0.508,-0.273 0.514,-0.271 0.519,-0.268C0.523,-0.264 0.525,-0.259 0.525,-0.253L0.525,-0.201C0.525,-0.195 0.522,-0.19 0.518,-0.185C0.513,-0.181 0.507,-0.178 0.501,-0.178L0.096,-0.178Z" style="fill-rule:nonzero;"/>
                </g>
                <g transform="matrix(192.485,0,0,192.485,1695.84,1302.35)">
                    <path d="M0.096,-0.178C0.09,-0.178 0.085,-0.18 0.081,-0.184C0.077,-0.188 0.075,-0.194 0.075,-0.201L0.075,-0.253C0.075,-0.259 0.077,-0.264 0.081,-0.268C0.085,-0.271 0.09,-0.273 0.096,-0.273L0.501,-0.273C0.508,-0.273 0.514,-0.271 0.519,-0.268C0.523,-0.264 0.525,-0.259 0.525,-0.253L0.525,-0.201C0.525,-0.195 0.522,-0.19 0.518,-0.185C0.513,-0.181 0.507,-0.178 0.501,-0.178L0.096,-0.178Z" style="fill-rule:nonzero;"/>
                </g>
                <g transform="matrix(192.485,0,0,192.485,1926.86,1274.34)">
                    <path d="M0.204,-0.08C0.204,-0.105 0.213,-0.126 0.231,-0.143C0.248,-0.159 0.271,-0.167 0.3,-0.167C0.329,-0.167 0.352,-0.159 0.37,-0.143C0.387,-0.127 0.396,-0.106 0.396,-0.08C0.396,-0.054 0.387,-0.033 0.369,-0.017C0.352,-0.001 0.328,0.007 0.3,0.007C0.271,0.007 0.248,-0.001 0.23,-0.017C0.213,-0.033 0.204,-0.054 0.204,-0.08Z" style="fill-rule:nonzero;"/>
                </g>
                <g transform="matrix(192.485,0,0,192.485,2042.37,1274.34)">
                    <path d="M0.204,-0.08C0.204,-0.105 0.213,-0.126 0.231,-0.143C0.248,-0.159 0.271,-0.167 0.3,-0.167C0.329,-0.167 0.352,-0.159 0.37,-0.143C0.387,-0.127 0.396,-0.106 0.396,-0.08C0.396,-0.054 0.387,-0.033 0.369,-0.017C0.352,-0.001 0.328,0.007 0.3,0.007C0.271,0.007 0.248,-0.001 0.23,-0.017C0.213,-0.033 0.204,-0.054 0.204,-0.08Z" style="fill-rule:nonzero;"/>
                </g>
                <g transform="matrix(192.485,0,0,192.485,2157.88,1274.34)">
                    <path d="M0.204,-0.08C0.204,-0.105 0.213,-0.126 0.231,-0.143C0.248,-0.159 0.271,-0.167 0.3,-0.167C0.329,-0.167 0.352,-0.159 0.37,-0.143C0.387,-0.127 0.396,-0.106 0.396,-0.08C0.396,-0.054 0.387,-0.033 0.369,-0.017C0.352,-0.001 0.328,0.007 0.3,0.007C0.271,0.007 0.248,-0.001 0.23,-0.017C0.213,-0.033 0.204,-0.054 0.204,-0.08Z" style="fill-rule:nonzero;"/>
                </g>
                <g transform="matrix(192.485,0,0,192.485,2273.39,1274.34)">
                    <path d="M0.204,-0.08C0.204,-0.105 0.213,-0.126 0.231,-0.143C0.248,-0.159 0.271,-0.167 0.3,-0.167C0.329,-0.167 0.352,-0.159 0.37,-0.143C0.387,-0.127 0.396,-0.106 0.396,-0.08C0.396,-0.054 0.387,-0.033 0.369,-0.017C0.352,-0.001 0.328,0.007 0.3,0.007C0.271,0.007 0.248,-0.001 0.23,-0.017C0.213,-0.033 0.204,-0.054 0.204,-0.08Z" style="fill-rule:nonzero;"/>
                </g>
                <g transform="matrix(192.485,0,0,192.485,2504.41,1274.34)">
                    <path d="M0.204,-0.08C0.204,-0.105 0.213,-0.126 0.231,-0.143C0.248,-0.159 0.271,-0.167 0.3,-0.167C0.329,-0.167 0.352,-0.159 0.37,-0.143C0.387,-0.127 0.396,-0.106 0.396,-0.08C0.396,-0.054 0.387,-0.033 0.369,-0.017C0.352,-0.001 0.328,0.007 0.3,0.007C0.271,0.007 0.248,-0.001 0.23,-0.017C0.213,-0.033 0.204,-0.054 0.204,-0.08Z" style="fill-rule:nonzero;"/>
                </g>
                <g transform="matrix(192.485,0,0,192.485,2619.92,1274.34)">
                    <path d="M0.204,-0.08C0.204,-0.105 0.213,-0.126 0.231,-0.143C0.248,-0.159 0.271,-0.167 0.3,-0.167C0.329,-0.167 0.352,-0.159 0.37,-0.143C0.387,-0.127 0.396,-0.106 0.396,-0.08C0.396,-0.054 0.387,-0.033 0.369,-0.017C0.352,-0.001 0.328,0.007 0.3,0.007C0.271,0.007 0.248,-0.001 0.23,-0.017C0.213,-0.033 0.204,-0.054 0.204,-0.08Z" style="fill-rule:nonzero;"/>
                </g>
                <g transform="matrix(192.485,0,0,192.485,2735.43,1274.34)">
                    <path d="M0.204,-0.08C0.204,-0.105 0.213,-0.126 0.231,-0.143C0.248,-0.159 0.271,-0.167 0.3,-0.167C0.329,-0.167 0.352,-0.159 0.37,-0.143C0.387,-0.127 0.396,-0.106 0.396,-0.08C0.396,-0.054 0.387,-0.033 0.369,-0.017C0.352,-0.001 0.328,0.007 0.3,0.007C0.271,0.007 0.248,-0.001 0.23,-0.017C0.213,-0.033 0.204,-0.054 0.204,-0.08Z" style="fill-rule:nonzero;"/>
                </g>
                <g transform="matrix(192.485,0,0,192.485,2966.45,1274.34)">
                    <path d="M0.204,-0.08C0.204,-0.105 0.213,-0.126 0.231,-0.143C0.248,-0.159 0.271,-0.167 0.3,-0.167C0.329,-0.167 0.352,-0.159 0.37,-0.143C0.387,-0.127 0.396,-0.106 0.396,-0.08C0.396,-0.054 0.387,-0.033 0.369,-0.017C0.352,-0.001 0.328,0.007 0.3,0.007C0.271,0.007 0.248,-0.001 0.23,-0.017C0.213,-0.033 0.204,-0.054 0.204,-0.08Z" style="fill-rule:nonzero;"/>
                </g>
                <g transform="matrix(192.485,0,0,192.485,3081.96,1274.34)">
                    <path d="M0.204,-0.08C0.204,-0.105 0.213,-0.126 0.231,-0.143C0.248,-0.159 0.271,-0.167 0.3,-0.167C0.329,-0.167 0.352,-0.159 0.37,-0.143C0.387,-0.127 0.396,-0.106 0.396,-0.08C0.396,-0.054 0.387,-0.033 0.369,-0.017C0.352,-0.001 0.328,0.007 0.3,0.007C0.271,0.007 0.248,-0.001 0.23,-0.017C0.213,-0.033 0.204,-0.054 0.204,-0.08Z" style="fill-rule:nonzero;"/>
                </g>
                <g transform="matrix(192.485,0,0,192.485,3197.47,1274.34)">
                    <path d="M0.204,-0.08C0.204,-0.105 0.213,-0.126 0.231,-0.143C0.248,-0.159 0.271,-0.167 0.3,-0.167C0.329,-0.167 0.352,-0.159 0.37,-0.143C0.387,-0.127 0.396,-0.106 0.396,-0.08C0.396,-0.054 0.387,-0.033 0.369,-0.017C0.352,-0.001 0.328,0.007 0.3,0.007C0.271,0.007 0.248,-0.001 0.23,-0.017C0.213,-0.033 0.204,-0.054 0.204,-0.08Z" style="fill-rule:nonzero;"/>
                </g>
            </g>
        </g>
    </g>
</svg>
